<svg width="200" height="140" viewBox="0 0 200 140" xmlns="http://www.w3.org/2000/svg">
  <!-- Robot Body (chest up) -->
  <ellipse cx="100" cy="80" rx="40" ry="35" fill="#87CEEB" stroke="#5F9EA0" stroke-width="2"/>
  
  <!-- Robot Head -->
  <ellipse cx="100" cy="50" rx="30" ry="25" fill="#87CEEB" stroke="#5F9EA0" stroke-width="2"/>
  
  <!-- Robot Face -->
  <ellipse cx="100" cy="50" rx="18" ry="15" fill="white"/>
  
  <!-- Robot Eyes -->
  <circle cx="95" cy="47" r="3" fill="#2C3E50"/>
  <circle cx="105" cy="47" r="3" fill="#2C3E50"/>
  
  <!-- Robot Smile -->
  <path d="M 92 55 Q 100 60 108 55" stroke="#2C3E50" stroke-width="2" fill="none"/>
  
  <!-- Robot Ears/Side Details -->
  <circle cx="75" cy="50" r="4" fill="#87CEEB"/>
  <circle cx="125" cy="50" r="4" fill="#87CEEB"/>
  
  <!-- Lightbulb -->
  <ellipse cx="100" cy="25" rx="8" ry="12" fill="#FFD700"/>
  <rect x="96" y="35" width="8" height="4" fill="#87CEEB"/>
  
  <!-- Lightbulb Filament -->
  <path d="M 100 20 Q 95 25 100 30 Q 105 25 100 20" stroke="#2C3E50" stroke-width="1" fill="none"/>
  
  <!-- Antennae/Connectors -->
  <path d="M 92 35 Q 80 25 75 20" stroke="#FF8C00" stroke-width="3" fill="none"/>
  <circle cx="75" cy="20" r="3" fill="#FF8C00"/>
  
  <path d="M 108 35 Q 120 25 125 20" stroke="#FF8C00" stroke-width="3" fill="none"/>
  <circle cx="125" cy="20" r="3" fill="#FF8C00"/>
  
  <!-- Robot Hands/Arms -->
  <circle cx="70" cy="85" r="5" fill="#87CEEB"/>
  <circle cx="130" cy="85" r="5" fill="#87CEEB"/>
  
  <!-- Book -->
  <rect x="75" y="95" width="50" height="25" rx="3" fill="#FF8C00"/>
  <rect x="95" y="95" width="4" height="25" fill="#4169E1"/>
  <rect x="75" y="97" width="50" height="2" fill="#FFE4B5"/>
  <rect x="75" y="101" width="50" height="2" fill="#FFE4B5"/>
  <rect x="75" y="105" width="50" height="2" fill="#FFE4B5"/>
  <rect x="75" y="109" width="50" height="2" fill="#FFE4B5"/>
  <rect x="75" y="113" width="50" height="2" fill="#FFE4B5"/>
  
  <!-- Text -->
  <text x="100" y="135" text-anchor="middle" font-family="Arial, sans-serif" font-size="18" font-weight="bold">
    <tspan fill="#32CD32">edai</tspan>
    <tspan fill="#FF8C00">.fun</tspan>
  </text>
</svg>